<svg width="811" height="1422" viewBox="0 0 811 1422" fill="none" xmlns="http://www.w3.org/2000/svg">
<path d="M926.143 616.544C629.342 670.668 338.193 614.818 136.636 375.8C86.1425 318.909 -34.2147 63.5855 9.3162 0C62.0115 91.1382 103.281 189.031 164.665 274.456C363.604 522.103 639.071 549.061 926.679 452.686C928.226 507.137 930.369 562.331 926.143 616.544Z" fill="#202020" fill-opacity="0.1"/>
<path d="M99.2049 927.539C100.663 899.689 119.497 879.991 134.256 857.764C163.028 825.808 183.857 788.883 201.323 749.964C241.134 658.915 271.424 622.078 374.405 618.151C389.847 615.919 394.43 629.071 399.934 639.544C409.634 656.713 391.484 667.93 377.083 672.393C310.016 676.053 278.833 725.773 257.826 782.634C236.701 832.8 207.749 878.265 169.664 922.689C209.594 925.545 244.734 928.58 279.934 930.425C354.082 931.883 387.943 854.105 407.73 794.357C417.103 771.803 449.773 767.221 463.698 787.216C485.032 816.554 477.356 854.253 479.706 888.203C486.698 919.237 504.819 946.879 513.21 977.943C575.01 1109.34 669.808 1221.9 773.77 1322.11C812.957 1359.96 865.296 1381.59 906.238 1417.24C905.643 1418.82 905.048 1420.42 904.452 1422C791.891 1393.58 701.913 1313.01 623.272 1230.95C598.992 1202.44 574.683 1173.94 550.403 1145.43C499.701 1073.13 463.163 992.761 425.255 913.257C383.748 953.991 333.611 988.298 274.489 989.994C216.2 987.702 96.8245 1018.47 99.3239 927.509L99.2049 927.539Z" fill="#202020" fill-opacity="0.1"/>
</svg>
